<?xml version="1.0" encoding="utf-8"?>
<!-- Generator: Adobe Illustrator 28.0.0, SVG Export Plug-In . SVG Version: 6.00 Build 0)  -->
<svg version="1.1" id="Capa_1" xmlns="http://www.w3.org/2000/svg" xmlns:xlink="http://www.w3.org/1999/xlink" x="0px" y="0px"
	 viewBox="0 0 300 300" style="enable-background:new 0 0 300 300;" xml:space="preserve">
<style type="text/css">
	.st0{clip-path:url(#SVGID_00000147180721991492620490000016923112571642870917_);}
</style>
<g>
	<defs>
		<rect id="SVGID_1_" x="4831.58" y="910.89" width="798.42" height="392.79"/>
	</defs>
	<clipPath id="SVGID_00000111178547271864046780000010587294123722112151_">
		<use xlink:href="#SVGID_1_"  style="overflow:visible;"/>
	</clipPath>
	<g style="clip-path:url(#SVGID_00000111178547271864046780000010587294123722112151_);">
		<defs>
			<rect id="SVGID_00000126293120362898270830000003714004350077803707_" x="4773.13" y="854.08" width="1082.14" height="562.46"/>
		</defs>
		<clipPath id="SVGID_00000051368043614489758560000005180150998648191402_">
			<use xlink:href="#SVGID_00000126293120362898270830000003714004350077803707_"  style="overflow:visible;"/>
		</clipPath>
	</g>
</g>
<g>
	<g>
		<g>
			<g>
				<path d="M280.63,138.15h-36.45c-6.61-7.02-8.25-9.74-8.56-10.47c-0.87-5.74-7.44-39.46-15.54-50.68
					c-9.96-13.8-13.83-35.1-13.87-35.31l-6.36-28.7c-0.49-2.2-1.87-4.15-3.79-5.33c-1.92-1.19-4.28-1.55-6.46-1.01
					c-13.12,3.28-22.39,16.8-22.54,32.89c-0.1,10.72,2.75,22.32,5.12,31.05l-18.41-13.12c-0.29-0.19-75.91-51.79-75.91-51.79
					c-2.51-1.71-5.44-2.62-8.47-2.62c-4.39,0-8.54,1.91-11.4,5.23l-1.3,1.51c-5.26,6.11-4.76,15.28,1.12,20.78l38.75,36.28
					L42.91,38.86c-2.14-1.12-4.54-1.71-6.95-1.71c-5.27,0-10.06,2.68-12.81,7.16l-0.21,0.34c-4.27,6.89-2.27,15.93,4.5,20.39
					l47.98,31.6L30.07,81.68c-1.52-0.5-3.11-0.76-4.72-0.76c-5.44,0-10.48,2.95-13.13,7.71c-1.99,3.56-2.44,7.84-1.25,11.74
					c1.19,3.9,3.97,7.18,7.61,9.02l34.5,17.39l-27.96-0.79c-4.02-0.07-7.57,2.84-8.13,6.87l-0.28,1.96c-0.6,4.24,2.26,8.2,6.47,8.97
					l10.51,1.93l-2.02,0.03c-4.34,0.08-8.43,2.02-11.23,5.34c-2.8,3.32-4.03,7.68-3.37,11.97l0.35,2.3c0.38,2.5,1.41,4.87,2.97,6.88
					l-5.92,0.53c-4.18,0.38-7.35,3.92-7.26,8.12l0.01,0.38c0.09,4.34,3.55,7.78,7.89,7.82l90.42,1.07c1.03,0.01,1.93,0.71,2.2,1.7
					l0.19,0.69c0.16,0.6,0.08,1.23-0.23,1.76c-0.31,0.54-0.82,0.92-1.42,1.07L27.9,215.56c-3.97,1.02-6.2,6.81-5.98,10.34
					c0.14,2.2,1.31,4.39,3.23,6.02c1.87,1.58,4.16,2.37,6.31,2.13L122,221.74c1.06-0.13,2.08,0.53,2.43,1.57
					c0.15,0.47,0.31,0.88,0.46,1.23c0.13,0.33,0.28,0.72,0.37,0.68c-0.06,0.07-0.38,0.36-1.95,0.95
					c-0.41,0.15-10.6,5.45-60.05,31.35l-0.9,0.47c-2.04,1.07-3.52,2.97-4.06,5.21c-0.54,2.24-0.08,4.6,1.25,6.48l1.34,1.89
					c2.1,2.96,5.92,4.13,9.32,2.86l72.07-27c30.64,4.06,56.72-2.64,73.46-9.14l63.03,56.49c1.55,1.39,3.54,2.15,5.62,2.15
					c1.21,0,2.38-0.26,3.49-0.76c3.04-1.39,4.97-4.45,4.92-7.8l0-138.06C292.8,143.6,287.35,138.15,280.63,138.15z M107.53,147.72
					c0.59-2.27-0.51-4.69-2.61-5.75l-81.94-41.31c-1.29-0.65-2.24-1.78-2.66-3.16c-0.42-1.38-0.27-2.84,0.44-4.1
					c1.22-2.2,3.85-3.23,6.24-2.43l76.82,25.36c1.29,0.43,2.66,0.32,3.87-0.3c1.21-0.62,2.1-1.67,2.51-2.96l0.22-0.69
					c0.68-2.14-0.15-4.49-2.03-5.72L32.86,56.92c-2.39-1.57-3.08-4.71-1.59-7.15l0.2-0.32c1.44-2.34,4.47-3.2,6.92-1.91l84.43,44.04
					c2.37,1.23,5.3,0.4,6.66-1.9c1.21-2.05,0.84-4.61-0.89-6.24l-64.09-60c-2.07-1.93-2.24-5.13-0.39-7.27l1.3-1.5
					c1.75-2.03,4.73-2.42,6.95-0.92l75.77,51.69l25.39,18.1l0.3,0.16c0.31,0.12,7.64,2.87,10.45-1.83
					c0.77-1.28,0.18-3.62-1.81-10.81c-2.28-8.24-5.72-20.69-5.62-31.43c0.11-11.03,5.71-20.29,13.8-23.09l5.96,26.83
					c0.16,0.96,4.2,23.61,15.57,39.35c5.7,7.9,12.37,36.64,13.83,46.65c1.5,10.26,47.93,50.43,55.29,56.74l1.7,99.32l-84.89-76.09
					l-0.37-0.33l-0.49-0.02c-0.43-0.01-43.6-1.84-88-32.19l-77.49-8.48c-2.37-0.26-4.28-2.08-4.64-4.44l-0.35-2.3
					c-0.23-1.5,0.2-3.03,1.18-4.19s2.41-1.84,3.93-1.87c29.88-0.52,65.04-1.1,68.21-1.1c0.1,0,0.17,0,0.2,0
					C105.74,155.05,106.93,150.09,107.53,147.72z"/>
			</g>
		</g>
	</g>
</g>
</svg>
